<?xml version="1.0" encoding="iso-8859-1"?>
<!-- Uploaded to: SVG Repo, www.svgrepo.com, Generator: SVG Repo Mixer Tools -->
<svg height="800px" width="800px" version="1.1" id="Layer_1" xmlns="http://www.w3.org/2000/svg" xmlns:xlink="http://www.w3.org/1999/xlink" 
	 viewBox="0 0 496.159 496.159" xml:space="preserve">
<path style="fill:#D8DBBA;" d="M248.083,0.003C111.071,0.003,0,111.063,0,248.085c0,137.001,111.07,248.07,248.083,248.07
	c137.006,0,248.076-111.069,248.076-248.07C496.159,111.062,385.089,0.003,248.083,0.003z"/>
<path style="fill:#D61E1E;" d="M363.503,128.706c0,0-71.074-63.171-115.423,48.672c-44.349-111.843-115.423-48.672-115.423-48.672
	C39.745,207.681,239.071,377.487,247.911,384.94v0.285c0,0,0.061-0.05,0.169-0.143c0.108,0.093,0.169,0.143,0.169,0.143v-0.285
	C257.088,377.488,456.415,207.681,363.503,128.706z"/>
</svg>